<svg xmlns="http://www.w3.org/2000/svg"  viewBox="0 0 100 100" width="100px" height="100px"><path fill="#fec933" d="M76,37c0-14.909-12.55-26.888-27.662-25.948c-13.221,0.822-23.862,11.783-24.322,25.022 c-0.274,7.882,2.963,15.011,8.268,19.95C36.596,60.04,39,65.697,39,71.59V72h22v-0.404c0-6.017,2.626-11.655,6.973-15.814 C72.919,51.05,76,44.386,76,37z"/><path fill="#6b96d6" d="M65,71c0-2.209-1.791-4-4-4H39c-2.209,0-4,1.791-4,4c0,2.007,1.478,3.669,3.405,3.956	C37.545,75.69,37,76.781,37,78c0,2.209,1.791,4,4,4c0,3.866,3.134,7,7,7h4c3.866,0,7-3.134,7-7c2.209,0,4-1.791,4-4	c0-1.219-0.545-2.31-1.405-3.044C63.522,74.669,65,73.007,65,71z"/><path fill="#4a254b" d="M52,75.5H38c-0.276,0-0.5-0.224-0.5-0.5s0.224-0.5,0.5-0.5h14c0.276,0,0.5,0.224,0.5,0.5S52.276,75.5,52,75.5z"/><path fill="#4a254b" d="M59.5,83h-9c-0.276,0-0.5-0.224-0.5-0.5s0.224-0.5,0.5-0.5h9c0.276,0,0.5,0.224,0.5,0.5S59.776,83,59.5,83z"/><path fill="#4a254b" d="M50,46.947c2.567,0,4.683-1.935,4.967-4.426c0.035-0.303-0.186-0.574-0.491-0.574c-1.726,0-7.224,0-8.952,0 c-0.305,0-0.527,0.271-0.492,0.574C45.317,45.012,47.433,46.947,50,46.947z"/><circle cx="39.5" cy="35.447" r="5.5" fill="#fff"/><circle cx="39.5" cy="35.447" r="2.5" fill="#4a254b"/><circle cx="60.5" cy="35.447" r="5.5" fill="#fff"/><circle cx="60.5" cy="35.447" r="2.5" fill="#4a254b"/></svg>